<?xml version="1.0" encoding="utf-8"?>
<!-- Generator: Adobe Illustrator 22.0.1, SVG Export Plug-In . SVG Version: 6.00 Build 0)  -->
<svg version="1.1" id="Layer_1" xmlns="http://www.w3.org/2000/svg" xmlns:xlink="http://www.w3.org/1999/xlink" x="0px" y="0px"
	 viewBox="0 0 512 512" style="enable-background:new 0 0 512 512;" xml:space="preserve">
<style type="text/css">
	.st0{fill:#F29B9B;}
	.st1{opacity:0.4;fill:#F29B9B;}
</style>
<g>
	<g>
		<polygon class="st0" points="358.4,102.4 153.6,102.4 204.8,0 307.2,0 		"/>
		<polygon class="st1" points="358.4,102.4 307.2,204.8 102.4,204.8 153.6,102.4 		"/>
	</g>
	<g>
		<polygon class="st0" points="153.6,512 51.2,512 0,409.6 51.2,307.2 102.4,409.6 		"/>
		<polygon class="st1" points="256,512 153.6,512 102.4,409.6 51.2,307.2 153.6,307.2 204.8,409.6 		"/>
	</g>
	<g>
		<polygon class="st1" points="409.6,409.6 460.8,512 358.4,512 307.2,409.6 358.4,307.2 409.6,204.8 460.8,307.2 		"/>
		<polygon class="st0" points="512,409.6 460.8,512 409.6,409.6 460.8,307.2 		"/>
	</g>
</g>
</svg>
