<?xml version="1.0" encoding="utf-8"?>
<!-- Generator: Adobe Illustrator 22.0.1, SVG Export Plug-In . SVG Version: 6.00 Build 0)  -->
<svg version="1.1" id="Layer_1" xmlns="http://www.w3.org/2000/svg" xmlns:xlink="http://www.w3.org/1999/xlink" x="0px" y="0px"
	 viewBox="0 0 78 29" style="enable-background:new 0 0 78 29;" xml:space="preserve">
<style type="text/css">
	.st0{fill:#BA2525;}
</style>
<g>
	<path class="st0" d="M9,23.8c-1.4-0.8-2.5-2-3.3-3.6c-0.8-1.6-1.1-3.4-1.1-5.6c0-2.2,0.4-4.1,1.2-5.7c0.8-1.6,1.9-2.8,3.3-3.7
		c1.4-0.9,3.1-1.3,5-1.3c1.9,0,3.6,0.4,5,1.3c1.4,0.9,2.5,2.1,3.3,3.7c0.8,1.6,1.2,3.5,1.2,5.6c0,2.1-0.4,4-1.1,5.6
		c-0.8,1.6-1.9,2.8-3.3,3.6c-1.4,0.9-3.1,1.3-5,1.3C12.1,25.1,10.5,24.6,9,23.8z M17.4,20c0.7-1.1,1-2.9,1-5.4
		c0-2.5-0.4-4.4-1.1-5.5c-0.7-1.2-1.8-1.7-3.3-1.7c-1.5,0-2.7,0.6-3.4,1.7s-1.1,3-1.1,5.5c0,2.5,0.4,4.3,1.1,5.4
		c0.7,1.1,1.8,1.7,3.4,1.7C15.6,21.6,16.7,21.1,17.4,20z"/>
	<path class="st0" d="M33.5,4.2c3.7,0.1,6.4,1,8.2,2.8c1.8,1.8,2.7,4.2,2.7,7.4c0,3.3-0.9,5.8-2.8,7.6c-1.9,1.8-4.6,2.7-8.2,2.7h-6
		c-0.2,0-0.4-0.1-0.5-0.2c-0.1-0.1-0.2-0.3-0.2-0.5V4.8c0-0.2,0-0.3,0.1-0.4c0.1-0.1,0.2-0.1,0.5-0.1C30.4,4.2,32.4,4.2,33.5,4.2z
		 M31.6,8V21c0,0.1,0,0.2,0.1,0.3s0.1,0.1,0.3,0.1h0.5c2.3,0,4.1-0.5,5.2-1.6c1.1-1.1,1.7-2.9,1.7-5.4c0-2.3-0.5-4-1.4-5
		c-0.9-1-2.4-1.6-4.4-1.7l-1.7-0.1C31.7,7.7,31.6,7.8,31.6,8z"/>
	<path class="st0" d="M51.9,4.2c0.3,0,0.4,0.2,0.4,0.5v19.4c0,0.2-0.1,0.4-0.2,0.5c-0.1,0.1-0.3,0.2-0.6,0.2h-3.5
		c-0.2,0-0.4,0-0.5-0.1c-0.1-0.1-0.1-0.2-0.1-0.4V4.7c0-0.4,0.1-0.5,0.4-0.5H51.9z"/>
	<path class="st0" d="M73.1,4.2c0.2,0,0.4,0.1,0.4,0.4v19.7c0,0.1-0.1,0.2-0.2,0.3c-0.1,0.1-0.2,0.1-0.4,0.1h-2.8
		c-0.2,0-0.3,0-0.4-0.1c-0.1,0-0.2-0.1-0.3-0.3L60.6,12c-0.1-0.1-0.1-0.1-0.2-0.1c-0.1,0-0.1,0.1-0.1,0.2v12.2v0.1
		c0,0.1,0,0.3-0.1,0.3c-0.1,0.1-0.2,0.1-0.4,0.1h-2.9c-0.4,0-0.6-0.2-0.6-0.5V4.7c0-0.4,0.2-0.5,0.5-0.5h3.4c0.2,0,0.4,0,0.5,0.1
		c0.1,0,0.2,0.2,0.3,0.3l8.1,11.6c0.1,0.1,0.2,0.2,0.3,0.2c0.1,0,0.1-0.1,0.1-0.3V4.7c0-0.3,0.2-0.5,0.5-0.5H73.1z"/>
</g>
<g>
	<text transform="matrix(1 0 0 1 256 256)" style="font-family:'MyriadPro-Regular'; font-size:12px;">#17b897</text>
</g>
</svg>
