<svg width="672" height="537" viewBox="0 0 672 537" fill="none" xmlns="http://www.w3.org/2000/svg">
<rect width="672" height="537" fill="white"/>
<rect width="672" height="537" fill="white"/>
<rect x="25.75" y="158.75" width="198.698" height="93.2192" rx="3.25" fill="white" stroke="#868E96" stroke-width="0.5"/>
<rect x="36.4576" y="234.956" width="177.283" height="13.1101" rx="2.75" stroke="#BA2525" stroke-width="0.5"/>
<circle cx="114.891" cy="241.512" r="3.40254" fill="#BA2525"/>
<rect x="120.846" y="240.236" width="17.8633" height="2.5519" fill="#BA2525"/>
<rect x="41.3115" y="220.246" width="8.50634" height="3.82786" fill="#495057"/>
<rect x="82.1419" y="220.246" width="25.519" height="3.82786" fill="#495057"/>
<rect x="135.732" y="220.246" width="20.8405" height="3.82786" fill="#495057"/>
<rect x="188.896" y="220.246" width="14.8861" height="3.82786" fill="#495057"/>
<rect x="26" y="211.314" width="198.198" height="0.425317" fill="#DEE2E6"/>
<rect x="45.5646" y="202.382" width="9.7823" height="3.40254" fill="#9AA0AC"/>
<rect x="41.3115" y="202.382" width="3.40254" height="3.40254" fill="#BA2525"/>
<rect x="88.0964" y="202.382" width="23.8178" height="3.40254" fill="#9AA0AC"/>
<rect x="83.8432" y="202.382" width="3.40254" height="3.40254" fill="#BA2525"/>
<rect x="145.514" y="202.382" width="11.0582" height="3.40254" fill="#9AA0AC"/>
<rect x="141.261" y="202.382" width="3.40254" height="3.40254" fill="#BA2525"/>
<rect x="190.173" y="202.382" width="21.2659" height="3.40254" fill="#9AA0AC"/>
<rect x="185.919" y="202.382" width="3.40254" height="3.40254" fill="#BA2525"/>
<rect x="26" y="182.818" width="198.198" height="12.7595" fill="#BA2525"/>
<rect x="102.557" y="188.347" width="44.6583" height="2.5519" fill="white"/>
<rect x="177.838" y="165.38" width="39.5545" height="10.2076" rx="3" fill="#BA2525"/>
<path d="M207.185 165.38H214.393C216.05 165.38 217.393 166.723 217.393 168.38V172.587C217.393 174.244 216.05 175.587 214.393 175.587H207.185V165.38Z" fill="#780A0A"/>
<rect x="182.091" y="169.208" width="21.2659" height="2.97722" fill="white"/>
<rect x="36.2076" y="169.633" width="23.8178" height="3.82786" fill="#495057"/>
<rect x="233.651" y="158.75" width="198.698" height="93.2192" rx="3.25" fill="white" stroke="#868E96" stroke-width="0.5"/>
<rect x="244.359" y="234.956" width="177.283" height="13.1101" rx="2.75" stroke="#BA2525" stroke-width="0.5"/>
<circle cx="322.792" cy="241.512" r="3.40254" fill="#BA2525"/>
<rect x="328.747" y="240.236" width="17.8633" height="2.5519" fill="#BA2525"/>
<rect x="249.213" y="220.246" width="8.50634" height="3.82786" fill="#495057"/>
<rect x="290.043" y="220.246" width="25.519" height="3.82786" fill="#495057"/>
<rect x="343.633" y="220.246" width="20.8405" height="3.82786" fill="#495057"/>
<rect x="396.798" y="220.246" width="14.8861" height="3.82786" fill="#495057"/>
<rect x="233.901" y="211.314" width="198.198" height="0.425317" fill="#DEE2E6"/>
<rect x="253.466" y="202.382" width="9.7823" height="3.40254" fill="#9AA0AC"/>
<rect x="249.213" y="202.382" width="3.40254" height="3.40254" fill="#BA2525"/>
<rect x="295.997" y="202.382" width="23.8178" height="3.40254" fill="#9AA0AC"/>
<rect x="291.744" y="202.382" width="3.40254" height="3.40254" fill="#BA2525"/>
<rect x="353.415" y="202.382" width="11.0582" height="3.40254" fill="#9AA0AC"/>
<rect x="349.162" y="202.382" width="3.40254" height="3.40254" fill="#BA2525"/>
<rect x="398.074" y="202.382" width="21.2659" height="3.40254" fill="#9AA0AC"/>
<rect x="393.82" y="202.382" width="3.40254" height="3.40254" fill="#BA2525"/>
<rect x="233.901" y="182.818" width="198.198" height="12.7595" fill="#BA2525"/>
<rect x="310.458" y="188.347" width="44.6583" height="2.5519" fill="white"/>
<rect x="385.739" y="165.38" width="39.5545" height="10.2076" rx="3" fill="#BA2525"/>
<path d="M415.086 165.38H422.294C423.951 165.38 425.294 166.723 425.294 168.38V172.587C425.294 174.244 423.951 175.587 422.294 175.587H415.086V165.38Z" fill="#780A0A"/>
<rect x="389.993" y="169.208" width="21.2659" height="2.97722" fill="white"/>
<rect x="244.109" y="169.633" width="23.8178" height="3.82786" fill="#495057"/>
<rect x="440.552" y="158.75" width="198.698" height="93.2192" rx="3.25" fill="white" stroke="#868E96" stroke-width="0.5"/>
<rect x="451.26" y="234.956" width="177.283" height="13.1101" rx="2.75" stroke="#BA2525" stroke-width="0.5"/>
<circle cx="529.693" cy="241.512" r="3.40254" fill="#BA2525"/>
<rect x="535.648" y="240.236" width="17.8633" height="2.5519" fill="#BA2525"/>
<rect x="456.114" y="220.246" width="8.50634" height="3.82786" fill="#495057"/>
<rect x="496.944" y="220.246" width="25.519" height="3.82786" fill="#495057"/>
<rect x="550.534" y="220.246" width="20.8405" height="3.82786" fill="#495057"/>
<rect x="603.699" y="220.246" width="14.8861" height="3.82786" fill="#495057"/>
<rect x="440.802" y="211.314" width="198.198" height="0.425317" fill="#DEE2E6"/>
<rect x="460.367" y="202.382" width="9.7823" height="3.40254" fill="#9AA0AC"/>
<rect x="456.114" y="202.382" width="3.40254" height="3.40254" fill="#BA2525"/>
<rect x="502.898" y="202.382" width="23.8178" height="3.40254" fill="#9AA0AC"/>
<rect x="498.645" y="202.382" width="3.40254" height="3.40254" fill="#BA2525"/>
<rect x="560.316" y="202.382" width="11.0582" height="3.40254" fill="#9AA0AC"/>
<rect x="556.063" y="202.382" width="3.40254" height="3.40254" fill="#BA2525"/>
<rect x="604.975" y="202.382" width="21.2659" height="3.40254" fill="#9AA0AC"/>
<rect x="600.721" y="202.382" width="3.40254" height="3.40254" fill="#BA2525"/>
<rect x="440.802" y="182.818" width="198.198" height="12.7595" fill="#BA2525"/>
<rect x="517.359" y="188.347" width="44.6583" height="2.5519" fill="white"/>
<rect x="592.64" y="165.38" width="39.5545" height="10.2076" rx="3" fill="#BA2525"/>
<path d="M621.987 165.38H629.195C630.852 165.38 632.195 166.723 632.195 168.38V172.587C632.195 174.244 630.852 175.587 629.195 175.587H621.987V165.38Z" fill="#780A0A"/>
<rect x="596.894" y="169.208" width="21.2659" height="2.97722" fill="white"/>
<rect x="451.01" y="169.633" width="23.8178" height="3.82786" fill="#495057"/>
<rect y="30" width="672" height="1" fill="#E0E5EC"/>
<rect y="61" width="672" height="1" fill="#E0E5EC"/>
<rect x="28" y="132" width="610" height="1" fill="#E0E5EC"/>
<rect width="672" height="30" fill="white"/>
<rect y="31" width="672" height="30" fill="white"/>
<rect x="28" y="7" width="16" height="16" fill="#7407E9"/>
<rect x="515.261" y="13.1591" width="6.93182" height="6.93182" fill="#9AA0AC"/>
<rect x="524.966" y="9" width="2.77273" height="2.77273" rx="1.38636" fill="#DC6262"/>
<circle cx="548.592" cy="13.9895" r="5.59157" fill="#539FCC"/>
<rect x="559.775" y="7" width="79.6798" height="4.19368" fill="#495057"/>
<rect x="559.775" y="18.1831" width="43.3346" height="4.19368" fill="#9AA0AC"/>
<rect x="27" y="43" width="5" height="6" fill="#BA2525"/>
<rect x="37" y="43" width="20" height="6" fill="#BA2525"/>
<rect x="27" y="82" width="28" height="7" fill="#495057"/>
<rect x="564" y="83" width="25.5882" height="6.17647" fill="#BA2525"/>
<rect x="608.118" y="83" width="30.8824" height="6.17647" fill="#495057"/>
<rect x="28" y="119" width="25.5882" height="6.17647" fill="#BA2525"/>
<rect x="58" y="119" width="25.5882" height="6.17647" fill="#9AA0AC"/>
<rect x="88" y="119" width="25.5882" height="6.17647" fill="#9AA0AC"/>
<rect x="29" y="132" width="24" height="1" fill="#BA2525"/>
<rect y="499" width="672" height="38" fill="#F3F3F3"/>
<rect x="35" y="515" width="127" height="6" fill="#9AA0AC"/>
<rect x="583" y="510" width="54" height="6" fill="#9AA0AC"/>
<rect x="574" y="510" width="6" height="6" fill="#9AA0AC"/>
<rect x="583" y="520" width="54" height="6" fill="#9AA0AC"/>
<rect x="574" y="520" width="6" height="6" fill="#9AA0AC"/>
</svg>
