<?xml version="1.0" encoding="utf-8"?>
<!-- Generator: Adobe Illustrator 22.1.0, SVG Export Plug-In . SVG Version: 6.00 Build 0)  -->
<svg version="1.1" id="Layer_1" xmlns="http://www.w3.org/2000/svg" xmlns:xlink="http://www.w3.org/1999/xlink" x="0px" y="0px"
	 viewBox="0 0 78 29" style="enable-background:new 0 0 78 29;" xml:space="preserve">
<style type="text/css">
	.st0{fill:#8E2AF8;}
</style>
<g>
	<path class="st0" d="M20,26.2V21c-1.1,0.8-2.5,1.2-3.9,1.2c-4,0-7.1-3.3-7.1-7.3c0-4,3.2-7.3,7.1-7.3c1.5,0,2.8,0.5,4,1.2
		c0.1-0.7,0.8-1.2,1.6-1.2c0.9,0,1.6,0.7,1.6,1.6v5.8c0,0,0,0,0,0v11.2c0,0.8-0.7,1.6-1.6,1.6C20.8,27.7,20,27,20,26.2z M16.1,10.7
		c-1,0-2,0.5-2.8,1.3c-0.7,0.7-1.2,1.8-1.2,2.9c0,1.2,0.5,2.3,1.2,3c0.8,0.8,1.7,1.2,2.8,1.2c1.1,0,2.1-0.4,2.7-1.2
		c0.8-0.7,1.2-1.8,1.2-3c0-1.1-0.4-2.2-1.2-2.9C18.2,11.2,17.2,10.7,16.1,10.7z"/>
	<path class="st0" d="M32.2,22.2c-3.3,0-6.1-2.8-6.1-6.1v-7c0-0.8,0.7-1.6,1.6-1.6c0.9,0,1.6,0.7,1.6,1.6v7c0,1.7,1.3,3,3,3
		c1.7,0,3.1-1.3,3.1-3v-7c0-0.8,0.6-1.6,1.5-1.6c0.8,0,1.6,0.7,1.6,1.6v7C38.4,19.5,35.6,22.2,32.2,22.2z"/>
	<path class="st0" d="M47.3,22.2c-3.3,0-6.1-2.8-6.1-6.1v-7c0-0.8,0.7-1.6,1.6-1.6c0.9,0,1.6,0.7,1.6,1.6v7c0,1.7,1.3,3,3,3
		c1.7,0,3.1-1.3,3.1-3v-7c0-0.8,0.6-1.6,1.5-1.6c0.8,0,1.6,0.7,1.6,1.6v7C53.5,19.5,50.6,22.2,47.3,22.2z"/>
	<path class="st0" d="M56.5,14.9C56.5,14.9,56.5,14.9,56.5,14.9V3.3c0-0.9,0.7-1.6,1.6-1.6c0.9,0,1.6,0.7,1.6,1.6v5.5
		c1.1-0.8,2.5-1.2,3.9-1.2c4,0,7.1,3.3,7.1,7.4c0,4-3.2,7.3-7.1,7.3c-1.5,0-2.9-0.5-4-1.3c-0.1,0.7-0.8,1.3-1.6,1.3
		c-0.9,0-1.6-0.7-1.6-1.6V14.9z M59.7,14.9c0,1.1,0.4,2.2,1.2,2.9c0.7,0.8,1.7,1.2,2.8,1.2c1.1,0,2-0.4,2.8-1.2
		c0.7-0.7,1.2-1.8,1.2-2.9c0-1.2-0.4-2.2-1.2-3c-0.7-0.8-1.7-1.2-2.8-1.2c-1.1,0-2,0.4-2.8,1.2C60.2,12.7,59.7,13.7,59.7,14.9z"/>
</g>
</svg>
