<?xml version="1.0" standalone="no"?>
<!DOCTYPE svg PUBLIC "-//W3C//DTD SVG 20010904//EN"
 "http://www.w3.org/TR/2001/REC-SVG-20010904/DTD/svg10.dtd">
<svg version="1.0" xmlns="http://www.w3.org/2000/svg"
 width="700.000000pt" height="700.000000pt" viewBox="0 0 700.000000 700.000000"
 preserveAspectRatio="xMidYMid meet">
<metadata>
Created by potrace 1.11, written by Peter Selinger 2001-2013
</metadata>
<g transform="translate(0.000000,700.000000) scale(0.100000,-0.100000)"
fill="#000000" stroke="none">
<path d="M3477 6844 c-1 -1 -22 -4 -47 -7 -25 -3 -67 -13 -95 -22 -39 -14
-460 -251 -942 -532 -52 -30 -216 -125 -248 -143 -16 -10 -129 -75 -250 -145
-121 -70 -238 -137 -260 -150 -22 -12 -121 -70 -220 -127 -99 -58 -200 -116
-225 -130 -162 -91 -422 -245 -460 -273 -83 -61 -159 -180 -181 -285 -17 -79
-17 -2995 0 -3060 29 -112 101 -227 178 -283 27 -19 156 -96 288 -172 132 -76
335 -194 451 -261 117 -68 228 -132 248 -144 20 -11 53 -30 74 -41 20 -12 120
-70 222 -129 339 -197 1204 -697 1250 -722 134 -73 316 -78 455 -12 22 10 80
42 128 71 48 29 89 53 91 53 2 0 41 22 87 49 79 46 317 184 418 242 25 15 100
58 166 96 148 86 1293 748 1504 869 224 130 302 216 341 383 18 78 18 2983 0
3062 -27 112 -109 238 -195 296 -28 19 -974 567 -2030 1176 -104 60 -203 118
-220 128 -16 10 -41 24 -55 32 -43 24 -102 58 -170 97 -79 46 -143 68 -233 78
-37 5 -68 8 -70 6z m135 -251 c23 -11 115 -62 203 -113 148 -87 806 -467 885
-512 19 -11 184 -106 365 -211 182 -105 476 -275 655 -378 179 -103 350 -204
381 -223 64 -40 107 -97 124 -162 8 -34 11 -435 11 -1512 l-1 -1467 -22 -47
c-25 -56 -64 -99 -113 -126 -19 -11 -192 -111 -385 -222 -192 -111 -539 -312
-770 -445 -231 -134 -434 -251 -452 -261 -34 -21 -150 -88 -198 -114 -16 -10
-111 -64 -210 -122 -516 -300 -521 -302 -615 -292 -25 2 -74 19 -110 38 -54
27 -549 312 -670 385 -19 11 -41 24 -49 28 -8 3 -145 82 -304 175 -159 92
-291 168 -293 168 -2 0 -32 17 -66 38 -35 21 -83 50 -108 64 -25 14 -115 66
-200 115 -232 134 -420 243 -465 269 -142 80 -325 189 -352 210 -17 13 -44 50
-60 81 l-28 58 0 1480 c0 1649 -5 1524 68 1607 27 32 193 134 447 276 25 14
57 33 72 43 14 11 29 19 32 19 3 0 50 26 103 58 54 32 123 72 153 89 30 16 78
44 106 60 27 17 70 41 95 55 44 25 403 233 574 333 50 29 182 105 295 170 386
223 515 297 584 338 130 77 223 92 318 50z"/>
<path d="M1975 5238 l-200 -110 1 -682 c1 -374 2 -684 3 -688 1 -5 294 159
377 212 21 13 21 17 21 461 0 247 2 451 5 454 3 4 39 -14 79 -38 63 -38 755
-437 1199 -692 74 -43 223 -128 330 -190 610 -353 988 -570 1007 -579 13 -6
23 -13 24 -16 4 -22 3 -1223 -1 -1238 -4 -17 -40 1 -290 146 -157 90 -331 191
-386 223 -56 33 -106 59 -111 59 -5 0 -46 -21 -92 -47 -45 -27 -97 -56 -114
-66 -150 -87 -187 -111 -180 -117 4 -4 141 -83 303 -176 162 -93 426 -243 585
-335 l290 -167 45 26 c64 35 112 62 215 117 50 27 101 56 115 66 l26 17 -1
857 0 856 -100 58 c-55 31 -208 120 -340 196 -132 76 -325 187 -430 248 -104
60 -206 118 -225 129 -19 11 -123 71 -230 133 -107 62 -211 122 -230 132 -19
11 -123 71 -230 133 -107 62 -204 118 -215 124 -53 30 -242 138 -255 146 -42
26 -343 200 -345 200 -2 0 -95 53 -207 119 -112 65 -213 123 -224 129 -16 9
-52 -8 -219 -100z"/>
<path d="M4625 5234 c-109 -63 -200 -114 -201 -114 -2 0 -120 -69 -154 -90 -8
-5 -42 -24 -75 -43 -155 -87 -541 -310 -548 -317 -7 -6 369 -230 387 -230 4 0
163 90 354 201 191 110 366 212 390 225 38 23 42 23 43 7 0 -10 1 -215 2 -455
l0 -438 181 -104 c100 -57 190 -108 202 -114 l20 -11 0 684 c-1 442 -5 688
-11 694 -8 8 -255 147 -370 209 -18 9 -49 -6 -220 -104z"/>
<path d="M2480 3999 c-267 -154 -534 -309 -595 -344 l-110 -64 0 -857 -1 -857
36 -22 c19 -12 76 -43 125 -70 50 -26 95 -51 100 -55 6 -4 39 -23 75 -42 l65
-35 235 135 c129 74 278 160 330 190 52 30 109 62 125 72 193 111 379 218 415
238 25 14 78 45 118 69 41 24 75 43 78 43 2 0 32 17 66 38 35 21 83 50 108 64
53 30 699 402 744 428 17 10 49 28 71 40 22 12 82 47 132 77 l93 54 0 93 0 92
-104 62 c-57 34 -111 65 -120 68 -9 3 -37 -6 -63 -23 -27 -15 -59 -35 -73 -43
-14 -7 -221 -127 -460 -265 -239 -139 -455 -263 -480 -277 -25 -14 -173 -100
-330 -191 -710 -411 -875 -504 -880 -497 -3 4 -5 286 -4 625 1 517 3 618 15
629 11 10 331 196 539 313 80 45 426 244 440 253 8 5 52 30 97 55 45 25 84 49
87 53 3 6 -95 67 -263 162 -14 8 -47 27 -73 43 -26 15 -48 27 -50 27 -2 0
-221 -126 -488 -281z"/>
<path d="M2423 3354 l-111 -66 -1 -94 -1 -94 52 -30 c29 -17 60 -35 68 -40 15
-10 269 -156 353 -204 23 -13 74 -42 113 -65 l72 -41 197 114 197 115 -39 23
c-21 14 -81 49 -133 79 -52 30 -102 59 -111 64 -9 6 -40 23 -70 39 -30 16 -70
39 -89 51 -19 12 -55 33 -80 47 -25 14 -100 58 -167 97 -68 39 -126 71 -130
71 -5 0 -58 -30 -120 -66z"/>
</g>
</svg>
